<?xml version="1.0" ?><!DOCTYPE svg  PUBLIC '-//W3C//DTD SVG 1.1//EN'  'http://www.w3.org/Graphics/SVG/1.1/DTD/svg11.dtd'><svg id="Layer_1" style="enable-background:new 0 0 75 75;" version="1.1" viewBox="0 0 75 75" xml:space="preserve" xmlns="http://www.w3.org/2000/svg" xmlns:xlink="http://www.w3.org/1999/xlink"><style type="text/css">
	.st0{fill:#FFE100;}
	.st1{fill:#ED1C24;}
	.st2{fill:#F9A01B;}
	.st3{fill:#67923D;}
	.st4{fill:#9990C5;}
	.st5{fill:#406325;}
</style><g><g><path class="st0" d="M37.5,73.5c-9.7,0-19.5-1.7-29.1-5.1L7,67.9l-0.5-1.3c-6.8-19.3-6.8-38.9,0-58.2L7,7.1l1.3-0.5    C18,3.2,27.8,1.5,37.5,1.5S57,3.2,66.6,6.6L68,7.1l0.5,1.3c6.8,19.3,6.8,38.9,0,58.2L68,67.9l-1.3,0.5    C57,71.8,47.2,73.5,37.5,73.5z M11.7,63.3c8.6,2.9,17.3,4.3,25.8,4.3c8.6,0,17.2-1.4,25.8-4.3c5.7-17.1,5.7-34.5,0-51.6    c-8.6-2.9-17.3-4.3-25.8-4.3c-8.6,0-17.2,1.4-25.8,4.3C6,28.8,6,46.2,11.7,63.3z"/></g><g><path class="st0" d="M47.5,29.8c-1.3,0-2.3-1-2.3-2.3c0-1.3,1-2.3,2.3-2.3s2.3,1,2.3,2.3C49.8,28.8,48.8,29.8,47.5,29.8z     M47.5,29.8c-1.3,0-2.3-1-2.3-2.3c0-1.3,1-2.3,2.3-2.3s2.3,1,2.3,2.3C49.8,28.8,48.8,29.8,47.5,29.8z M47.5,29.8    c-1.3,0-2.3-1-2.3-2.3c0-1.3,1-2.3,2.3-2.3s2.3,1,2.3,2.3C49.8,28.8,48.8,29.8,47.5,29.8z M47.5,29.8c-1.3,0-2.3-1-2.3-2.3    c0-1.3,1-2.3,2.3-2.3s2.3,1,2.3,2.3C49.8,28.8,48.8,29.8,47.5,29.8z M47.5,29.8c-1.3,0-2.3-1-2.3-2.3c0-1.3,1-2.3,2.3-2.3    s2.3,1,2.3,2.3C49.8,28.8,48.8,29.8,47.5,29.8z M46.8,18.7H28.2c-5.2,0-9.5,4.3-9.5,9.5v18.6c0,5.2,4.3,9.5,9.5,9.5h18.7    c5.2,0,9.5-4.3,9.5-9.5V28.2C56.3,22.9,52.1,18.7,46.8,18.7z M52.2,46.8c0,3-2.4,5.4-5.4,5.4H28.2c-3,0-5.4-2.4-5.4-5.4V28.2    c0-3,2.4-5.4,5.4-5.4h18.7c3,0,5.4,2.4,5.4,5.4V46.8z M37.5,27.8c-5.3,0-9.7,4.3-9.7,9.7c0,5.3,4.4,9.7,9.7,9.7    c5.3,0,9.7-4.3,9.7-9.7C47.2,32.2,42.8,27.8,37.5,27.8z M37.5,43.1c-3.1,0-5.6-2.5-5.6-5.6c0-3.1,2.5-5.6,5.6-5.6    c3.1,0,5.6,2.5,5.6,5.6C43.1,40.6,40.6,43.1,37.5,43.1z M37.5,27.8c-5.3,0-9.7,4.3-9.7,9.7c0,5.3,4.4,9.7,9.7,9.7    c5.3,0,9.7-4.3,9.7-9.7C47.2,32.2,42.8,27.8,37.5,27.8z M37.5,43.1c-3.1,0-5.6-2.5-5.6-5.6c0-3.1,2.5-5.6,5.6-5.6    c3.1,0,5.6,2.5,5.6,5.6C43.1,40.6,40.6,43.1,37.5,43.1z M37.5,27.8c-5.3,0-9.7,4.3-9.7,9.7c0,5.3,4.4,9.7,9.7,9.7    c5.3,0,9.7-4.3,9.7-9.7C47.2,32.2,42.8,27.8,37.5,27.8z M37.5,43.1c-3.1,0-5.6-2.5-5.6-5.6c0-3.1,2.5-5.6,5.6-5.6    c3.1,0,5.6,2.5,5.6,5.6C43.1,40.6,40.6,43.1,37.5,43.1z M37.5,27.8c-5.3,0-9.7,4.3-9.7,9.7c0,5.3,4.4,9.7,9.7,9.7    c5.3,0,9.7-4.3,9.7-9.7C47.2,32.2,42.8,27.8,37.5,27.8z M37.5,43.1c-3.1,0-5.6-2.5-5.6-5.6c0-3.1,2.5-5.6,5.6-5.6    c3.1,0,5.6,2.5,5.6,5.6C43.1,40.6,40.6,43.1,37.5,43.1z M37.5,27.8c-5.3,0-9.7,4.3-9.7,9.7c0,5.3,4.4,9.7,9.7,9.7    c5.3,0,9.7-4.3,9.7-9.7C47.2,32.2,42.8,27.8,37.5,27.8z M37.5,43.1c-3.1,0-5.6-2.5-5.6-5.6c0-3.1,2.5-5.6,5.6-5.6    c3.1,0,5.6,2.5,5.6,5.6C43.1,40.6,40.6,43.1,37.5,43.1z"/></g></g></svg>